<svg xmlns="http://www.w3.org/2000/svg" version="1.1" xmlns:xlink="http://www.w3.org/1999/xlink" xmlns:svgjs="http://svgjs.dev/svgjs" width="1500" height="1500" viewBox="0 0 1500 1500"><rect width="1500" height="1500" fill="#fefbf6"></rect><g transform="matrix(0.6666666666666666,0,0,0.6666666666666666,249.78425655976667,249.78425655976673)"><svg viewBox="0 0 343 343" data-background-color="#fefbf6" preserveAspectRatio="xMidYMid meet" height="1500" width="1500" xmlns="http://www.w3.org/2000/svg" xmlns:xlink="http://www.w3.org/1999/xlink"><g id="tight-bounds" transform="matrix(1,0,0,1,0.0740000000000407,0.07400000000001228)"><svg viewBox="0 0 342.85155851775386 342.85155851775386" height="342.85155851775386" width="342.85155851775386"><g><svg></svg></g><g><svg viewBox="0 0 342.85155851775386 342.85155851775386" height="342.85155851775386" width="342.85155851775386"><g><path d="M0 171.426c0-94.676 76.75-171.426 171.426-171.426 94.676 0 171.426 76.75 171.426 171.426 0 94.676-76.75 171.426-171.426 171.426-94.676 0-171.426-76.75-171.426-171.426zM171.426 339.883c93.036 0 168.457-75.421 168.457-168.457 0-93.036-75.421-168.457-168.457-168.457-93.036 0-168.457 75.421-168.457 168.457 0 93.036 75.421 168.457 168.457 168.457z" data-fill-palette-color="tertiary" fill="#29231d" stroke="transparent"></path><ellipse rx="164.56874808852186" ry="164.56874808852186" cx="171.42577925887693" cy="171.42577925887693" fill="#29231d" stroke="transparent" stroke-width="0" fill-opacity="1" data-fill-palette-color="tertiary"></ellipse></g><g transform="matrix(1,0,0,1,64.84655864529837,128.33098389273104)"><svg viewBox="0 0 213.1584412271571 86.18959073229178" height="86.18959073229178" width="213.1584412271571"><g><svg viewBox="0 0 213.1584412271571 86.18959073229178" height="86.18959073229178" width="213.1584412271571"><g><svg viewBox="0 0 213.1584412271571 86.18959073229178" height="86.18959073229178" width="213.1584412271571"><g transform="matrix(1,0,0,1,0,53.26862482744723)"><svg viewBox="0 0 213.1584412271571 32.920965904844536" height="32.920965904844536" width="213.1584412271571"><g id="textblocktransform"><svg viewBox="0 0 213.1584412271571 32.920965904844536" height="32.920965904844536" width="213.1584412271571" id="textblock"><g><svg viewBox="0 0 213.1584412271571 32.920965904844536" height="32.920965904844536" width="213.1584412271571"><g transform="matrix(1,0,0,1,0,0)"><svg width="213.1584412271571" viewBox="0.25 -38.05 276.78 42.75" height="32.920965904844536" data-palette-color="#fefbf6"><path d="M37.25-10.75L37.25-10.75 38.85-8.3Q38.1-5.6 36.8-3.75 35.5-1.9 34.05-1.1L34.05-1.1Q31.5 0.3 29.2 0.3L29.2 0.3Q25.2 0.3 23.28-2.02 21.35-4.35 21.25-8.25L21.25-8.25Q21.1-14.55 20.5-16.1 19.9-17.65 17.75-17.85L17.75-17.85 18.1-21.6Q19-21.75 19.5-22 20-22.25 20.8-23L20.8-23Q22.5-24.5 23.3-30.05L23.3-30.05Q23.95-34.25 25.98-36.15 28-38.05 30.35-38.05 32.7-38.05 34.5-36.68 36.3-35.3 36.3-32.25L36.3-32.25Q36.3-28.2 33.38-25.25 30.45-22.3 25.25-19.9L25.25-19.9Q27.05-19.05 27.9-17.05 28.75-15.05 28.85-12.85 28.95-10.65 29-8.6L29-8.6Q29.2-3.8 31.85-3.8L31.85-3.8Q34.95-3.8 37.25-10.75ZM6.1 0.3L6.1 0.3Q3.45 0.3 1.85-1.3 0.25-2.9 0.25-5.4L0.25-5.4Q0.25-11.25 9.1-15.45L9.1-15.45Q9.45-18.4 10.1-23.8L10.1-23.8Q11.35-34.9 11.6-36.7L11.6-36.7Q13.65-38 15.88-38 18.1-38 19.25-37.75L19.25-37.75 15.55-9.5Q14.05 0.3 6.1 0.3ZM32.8-31.1Q32.8-31.85 32.38-32.25 31.95-32.65 31.55-32.65 31.15-32.65 30.93-32.55 30.7-32.45 30.53-32.23 30.35-32 30.25-31.78 30.15-31.55 30.03-31.1 29.9-30.65 29.83-30.33 29.75-30 29.6-29.4 29.45-28.8 29.2-27.78 28.95-26.75 28.6-25.7L28.6-25.7Q32.8-28.4 32.8-31.1L32.8-31.1ZM3.95-6.05L3.95-6.05Q3.95-4.25 5.65-4.25L5.65-4.25Q6.35-4.25 7.13-5.18 7.9-6.1 8.2-8.1L8.2-8.1 8.6-11.2Q3.95-8.5 3.95-6.05ZM50.42-24.1Q54-24.1 56.6-21.15 59.2-18.2 59.2-14.25L59.2-14.25Q59.2-13.7 59.15-13.1L59.15-13.1Q58.6-6.55 54.75-3.13 50.9 0.3 44.7 0.3L44.7 0.3Q42.2 0.2 40.35-0.6 38.5-1.4 37.6-2.6L37.6-2.6Q35.9-4.8 35.9-6.53 35.9-8.25 36.4-12.1L36.4-12.1Q37.45-20 39.4-37.65L39.4-37.65Q40.45-38.05 42.2-38.05L42.2-38.05Q46.2-38.05 46.2-35.75L46.2-35.75 44.5-22.45Q46.85-24.1 50.42-24.1ZM42.65-6.88Q42.65-5.7 43.52-4.93 44.4-4.15 45.95-4.15L45.95-4.15Q48.5-4.15 50.15-6.5L50.15-6.5Q52.15-9.35 52.15-13.9L52.15-13.9Q52.15-16.1 51.15-17.8 50.15-19.5 48.05-19.5L48.05-19.5Q45.2-19.5 43.7-16.1L43.7-16.1 43.3-13.1Q42.65-8.05 42.65-6.88ZM74.45-24.05L74.45-24.05Q79.05-24.05 82.12-21.1 85.2-18.15 85.2-13.9L85.2-13.9Q85.2-7.45 81.42-3.58 77.65 0.3 72.3 0.3 66.95 0.3 63.82-2.75 60.7-5.8 60.7-10.3L60.7-10.3Q60.7-16.6 64.55-20.3L64.55-20.3Q68.45-24.05 74.45-24.05ZM73.47-20Q71.1-20 69.5-17.3 67.9-14.6 67.75-10.5L67.75-10.5Q67.75-7.6 68.92-5.7 70.1-3.8 72.5-3.8 74.9-3.8 76.52-6.45 78.15-9.1 78.15-12.5 78.15-15.9 77-17.9L77-17.9Q75.85-20 73.47-20ZM102.09-17.5L102.09-17.5Q102.09-19.7 100.07-19.7 98.04-19.7 96.84-17.1L96.84-17.1Q102.24-12.85 102.24-7.55L102.24-7.55Q102.24-3.7 100.09-1.7 97.94 0.3 94.69 0.3 91.44 0.3 89.94-1.73 88.44-3.75 88.44-6.85L88.44-6.85Q88.44-7.8 88.49-8.25L88.49-8.25 90.24-23.5Q92.04-24.05 93.89-24.05L93.89-24.05Q96.94-24.05 96.94-21.8L96.94-21.8 96.94-21.7Q98.94-24.05 102.04-24.05L102.04-24.05Q104.29-24.05 105.54-23.03 106.79-22 106.79-20.3 106.79-18.6 105.52-17.53 104.24-16.45 102.19-16.45L102.19-16.45Q102.09-16.45 101.99-16.45L101.99-16.45Q102.09-17 102.09-17.5ZM98.99-7.8Q98.99-10.7 95.99-13.6L95.99-13.6Q95.09-6.4 95.09-6.35L95.09-6.35Q95.09-4.25 96.79-4.25L96.79-4.25Q98.99-4.25 98.99-7.8L98.99-7.8ZM130.19 0.25L130.19 0.25Q125.59 0.25 124.09-2.95L124.09-2.95Q121.49 0.3 117.42 0.3 113.34 0.3 110.57-2.45 107.79-5.2 107.79-9.7L107.79-9.7Q107.79-16.25 111.64-20.15 115.49-24.05 121.39-24.05L121.39-24.05Q121.54-24.05 121.69-24.05L121.69-24.05Q124.19-24.05 126.29-23.2L126.29-23.2Q127.64-24.05 129.57-24.05 131.49-24.05 132.34-23.55L132.34-23.55Q131.89-19.85 131.39-16.28 130.89-12.7 130.69-11.2L130.69-11.2Q130.24-7.8 130.24-6.3L130.24-6.3Q130.24-4.3 131.84-4.3L131.84-4.3Q133.09-4.3 134.49-5.98 135.89-7.65 136.94-11.25L136.94-11.25Q138.39-9.95 138.94-8.35L138.94-8.35Q137.49-3.6 135.04-1.68 132.59 0.25 130.19 0.25ZM122.14-20.15L122.14-20.15Q118.94-20.15 117.07-17.73 115.19-15.3 114.84-10.5L114.84-10.5Q114.79-10.05 114.79-9.65L114.79-9.65Q114.79-7.2 115.97-5.75 117.14-4.3 118.99-4.3L118.99-4.3Q122.14-4.3 123.74-8.75L123.74-8.75 124.94-19.55Q123.49-20.15 122.14-20.15ZM166.89 0L160.44 0 162.34-16.6Q162.34-18 161.66-18.93 160.99-19.85 159.29-19.85 157.59-19.85 156.49-18.23 155.39-16.6 155.09-14.8L155.09-14.8Q153.34-2.35 153.14 0L153.14 0 146.44 0 149.19-23.5Q151.29-24.05 152.39-24.05L152.39-24.05Q155.54-24.05 155.84-21.95L155.84-21.95Q158.29-24.05 161.19-24.05L161.19-24.05Q166.99-24.05 168.59-20.6L168.59-20.6Q171.04-24.1 175.59-24.1L175.59-24.1Q178.94-24.1 180.89-22.38 182.84-20.65 182.84-18.05L182.84-18.05Q182.84-17.3 182.54-15.4L182.54-15.4Q181.39-7.9 181.39-6.6L181.39-6.6Q181.39-4.25 182.94-4.25L182.94-4.25Q184.24-4.25 185.71-5.98 187.19-7.7 188.09-11.3L188.09-11.3Q189.79-9.5 190.14-8.45L190.14-8.45Q187.54 0.25 180.94 0.25L180.94 0.25Q177.84 0.25 176.34-1.65 174.84-3.55 174.84-5.65L174.84-5.65 176.04-16.7Q176.04-18.05 175.34-18.95 174.64-19.85 173.11-19.85 171.59-19.85 170.44-18.7 169.29-17.55 168.84-15.75L168.84-15.75Q167.34-3.05 166.89 0L166.89 0ZM208.83-23.55L208.83-23.55Q206.78-7.35 206.78-6.3L206.78-6.3Q206.78-4.3 208.23-4.3L208.23-4.3Q209.53-4.3 211.06-6.08 212.58-7.85 213.48-11.4L213.48-11.4Q215.13-9.6 215.48-8.6L215.48-8.6Q214.33-3.75 211.83-1.75 209.33 0.25 206.68 0.25L206.68 0.25Q202.33 0.25 200.83-3.1L200.83-3.1Q198.23 0.25 193.88 0.25L193.88 0.25Q190.28 0.25 188.33-1.55 186.38-3.35 186.38-6.25L186.38-6.25Q186.38-6.95 186.63-8.7L186.63-8.7Q187.78-18 188.38-23.5L188.38-23.5Q189.93-24.05 191.23-24.05 192.53-24.05 193.18-23.95 193.83-23.85 194.43-23.2 195.03-22.55 195.03-21.35L195.03-21.35 193.38-8.6Q193.28-8 193.28-7.5L193.28-7.5Q193.28-4.55 195.98-4.55L195.98-4.55Q198.48-4.55 200.13-7L200.13-7Q200.13-7.55 200.23-8.75L200.23-8.75 201.88-22.05Q202.23-22.9 203.38-23.48 204.53-24.05 206.26-24.05 207.98-24.05 208.83-23.55ZM232.73-15.3L232.73-15.3Q236.68-12.4 236.68-8.45 236.68-4.5 233.58-2.1 230.48 0.3 225.78 0.3L225.78 0.3Q222.73 0.3 220.71-1.23 218.68-2.75 218.68-5 218.68-7.25 220.18-8.58 221.68-9.9 223.93-10.2L223.93-10.2Q222.88-8.7 222.88-7.33 222.88-5.95 223.83-5.1L223.83-5.1Q224.78-4.25 226.23-4.25 227.68-4.25 228.63-5.33 229.58-6.4 229.58-7.8L229.58-7.8Q229.58-10.1 227.43-11.9L227.43-11.9Q226.13-12.95 224.63-13.88 223.13-14.8 223.03-14.85L223.03-14.85Q222.83-15 222.63-15.1L222.63-15.1Q221.73-14.05 220.03-12.23 218.33-10.4 217.33-9.3L217.33-9.3Q214.53-6.25 214.18-4.2L214.18-4.2Q214.08-3.8 214.08-2.68 214.08-1.55 214.76-0.35 215.43 0.85 216.38 1.45 217.33 2.05 218.26 2.43 219.18 2.8 219.86 2.95 220.53 3.1 220.53 3.15L220.53 3.15Q220.53 3.5 219.43 3.95L219.43 3.95Q217.38 4.7 215.16 4.7 212.93 4.7 210.83 3.1L210.83 3.1Q207.98 0.9 207.98-2.75L207.98-2.75Q207.98-5 209.13-7.2L209.13-7.2Q211.18-11.1 218.73-17.9L218.73-17.9Q216.88-19.75 216.88-21.85 216.88-23.95 218.46-25.4 220.03-26.85 222.18-26.85L222.18-26.85Q224.13-26.85 225.58-25.3L225.58-25.3Q226.53-24.25 226.53-22.65 226.53-21.05 225.48-19.05L225.48-19.05Q230.83-16.65 232.73-15.3ZM221.88-20.95L221.88-20.95Q223.08-22.2 223.08-22.75L223.08-22.75Q223.08-24 221.98-24.1L221.98-24.1Q220.73-24.1 220.73-22.7L220.73-22.7Q220.73-21.85 221.88-20.95ZM241.43-36.83Q242.58-38 244.23-38 245.88-38 247.05-36.83 248.23-35.65 248.23-34 248.23-32.35 247.05-31.2 245.88-30.05 244.23-30.05 242.58-30.05 241.43-31.2 240.28-32.35 240.28-34 240.28-35.65 241.43-36.83ZM239.38-22.15Q239.88-23.05 241.28-23.53 242.68-24 244.05-24 245.43-24 246.48-23.65L246.48-23.65Q244.53-8.6 244.53-8.45L244.53-8.45Q244.28-7.45 244.28-6.78 244.28-6.1 244.38-5.6L244.38-5.6Q244.58-4.3 246.2-4.3 247.83-4.3 249.2-6.43 250.58-8.55 251.28-11.25L251.28-11.25Q251.63-11.05 252.38-10.05 253.13-9.05 253.28-8.55L253.28-8.55Q252.28-4.55 249.88-2.1L249.88-2.1Q247.48 0.35 244.13 0.35 240.78 0.35 239.15-1.3 237.53-2.95 237.53-5.55L237.53-5.55Q237.53-6.1 237.58-6.7L237.58-6.7 239.38-22.15ZM264.83-16.95L264.83-16.95Q264.83-20.2 261.93-20.2L261.93-20.2Q259.78-20.2 258.08-17.75L258.08-17.75Q256.28-15.1 256.28-11.55 256.28-8 257.85-6.08 259.43-4.15 262.18-4.15L262.18-4.15Q265.48-4.15 269.15-6.85 272.83-9.55 275.08-13.55L275.08-13.55Q276.08-12.8 277.03-10.8L277.03-10.8Q275.58-7.9 271.63-4.3L271.63-4.3Q269.58-2.4 266.53-1.1L266.53-1.1Q263.23 0.3 259.93 0.3L259.93 0.3Q255.48 0.3 252.4-2.75 249.33-5.8 249.33-10.7L249.33-10.7Q249.33-16.65 253.33-20.35 257.33-24.05 262.28-24.05L262.28-24.05Q266.13-24.05 268.38-22.45 270.63-20.85 270.63-18.25L270.63-18.25Q270.63-16.55 269.43-15.3L269.43-15.3Q267.23-13.1 264.08-13.1L264.08-13.1Q264.83-15.6 264.83-16.95Z" opacity="1" transform="matrix(1,0,0,1,0,0)" fill="#fefbf6" class="wordmark-text-0" data-fill-palette-color="quaternary" id="text-0"></path></svg></g></svg></g></svg></g></svg></g><g transform="matrix(1,0,0,1,77.80874019791459,0)"><svg viewBox="0 0 57.54096083132794 45.49677488049515" height="45.49677488049515" width="57.54096083132794"><g><svg xmlns="http://www.w3.org/2000/svg" viewBox="7.249999999999998 16.200000000000006 85.49548759038183 67.60000000000001" x="0" y="0" height="45.49677488049515" width="57.54096083132794" class="icon-icon-0" data-fill-palette-color="quaternary" id="icon-0"><path class="a" d="M87.14 83.8h-74a0.85 0.85 0 0 1-0.85-0.85V51.49a0.85 0.85 0 1 1 1.7 0V82.1H86.29V51.49a0.85 0.85 0 1 1 1.7 0V82.95A0.85 0.85 0 0 1 87.14 83.8Z" fill="#fefbf6" data-fill-palette-color="quaternary"></path><path class="a" d="M91.9 52.34H8.1A0.85 0.85 0 0 1 7.44 51l6.94-8.69a0.85 0.85 0 0 1 0.66-0.32H85a0.85 0.85 0 0 1 0.66 0.32L92.56 51a0.85 0.85 0 0 1-0.66 1.38Zm-82-1.7H90.13l-5.58-7H15.45Z" fill="#fefbf6" data-fill-palette-color="quaternary"></path><path class="a" d="M39.29 60H18.78A0.85 0.85 0 0 1 18 59l0.76-3.2a0.85 0.85 0 0 1 0.83-0.65h19a0.85 0.85 0 0 1 0.83 0.65l0.76 3.2a0.85 0.85 0 0 1-0.83 1Zm-19.43-1.7H38.21l-0.36-1.5H20.21Z" fill="#fefbf6" data-fill-palette-color="quaternary"></path><path class="a" d="M39.29 72.69H18.78a0.85 0.85 0 0 1-0.85-0.85v-3.2a0.85 0.85 0 0 1 0.85-0.85H39.29a0.85 0.85 0 0 1 0.85 0.85v3.2A0.85 0.85 0 0 1 39.29 72.69ZM19.63 71H38.44v-1.5H19.63Z" fill="#fefbf6" data-fill-palette-color="quaternary"></path><path class="a" d="M26.8 69.54H22.34a0.85 0.85 0 0 1-0.85-0.85V59.12a0.85 0.85 0 0 1 0.85-0.85H26.8a0.85 0.85 0 0 1 0.85 0.85v9.57A0.85 0.85 0 0 1 26.8 69.54Zm-3.61-1.7H26V60H23.19Z" fill="#fefbf6" data-fill-palette-color="quaternary"></path><path class="a" d="M31.27 69.54H26.8a0.85 0.85 0 0 1-0.85-0.85V59.12a0.85 0.85 0 0 1 0.85-0.85h4.46a0.85 0.85 0 0 1 0.85 0.85v9.57A0.85 0.85 0 0 1 31.27 69.54Zm-3.61-1.7h2.76V60H27.65Z" fill="#fefbf6" data-fill-palette-color="quaternary"></path><path class="a" d="M35.73 69.54H31.27a0.85 0.85 0 0 1-0.85-0.85V59.12a0.85 0.85 0 0 1 0.85-0.85h4.46a0.85 0.85 0 0 1 0.85 0.85v9.57A0.85 0.85 0 0 1 35.73 69.54Zm-3.61-1.7h2.76V60H32.12Z" fill="#fefbf6" data-fill-palette-color="quaternary"></path><path class="a" d="M76.77 68.84H72.3a0.85 0.85 0 0 1-0.85-0.85V57.43a0.85 0.85 0 0 1 0.85-0.85h4.46a0.85 0.85 0 0 1 0.85 0.85V68A0.85 0.85 0 0 1 76.77 68.84Zm-3.61-1.7h2.76V58.28H73.15Z" fill="#fefbf6" data-fill-palette-color="quaternary"></path><path class="a" d="M81.23 68.84H76.77a0.85 0.85 0 0 1-0.85-0.85V57.43a0.85 0.85 0 0 1 0.85-0.85h4.46a0.85 0.85 0 0 1 0.85 0.85V68A0.85 0.85 0 0 1 81.23 68.84Zm-3.61-1.7h2.76V58.28H77.62Z" fill="#fefbf6" data-fill-palette-color="quaternary"></path><path class="a" d="M56.83 83.45H44.56a0.85 0.85 0 0 1-0.85-0.85V56.67a0.85 0.85 0 0 1 0.85-0.85H56.83a0.85 0.85 0 0 1 0.85 0.85V82.6A0.85 0.85 0 0 1 56.83 83.45Zm-11.41-1.7H56V57.52H45.41Z" fill="#fefbf6" data-fill-palette-color="quaternary"></path><path class="a" d="M68.61 60.91H60.28a0.85 0.85 0 0 1-0.85-0.85V57.47a0.85 0.85 0 0 1 0.85-0.85h8.32a0.85 0.85 0 0 1 0.85 0.85v2.59A0.85 0.85 0 0 1 68.61 60.91Zm-7.47-1.7h6.62v-0.89H61.13Z" fill="#fefbf6" data-fill-palette-color="quaternary"></path><path class="a" d="M82.42 76.61h-21a0.85 0.85 0 0 1 0-1.7h21a0.85 0.85 0 1 1 0 1.7Z" fill="#fefbf6" data-fill-palette-color="quaternary"></path><path class="a" d="M79 79.21H68.61a0.85 0.85 0 1 1 0-1.7H79a0.85 0.85 0 1 1 0 1.7Z" fill="#fefbf6" data-fill-palette-color="quaternary"></path><path class="a" d="M66.47 68.12h-5a0.85 0.85 0 0 1 0-1.7h5a0.85 0.85 0 0 1 0 1.7Z" fill="#fefbf6" data-fill-palette-color="quaternary"></path><path class="a" d="M47.57 71.31a0.85 0.85 0 0 1-0.85-0.85V67.51a0.85 0.85 0 0 1 1.7 0v2.95A0.85 0.85 0 0 1 47.57 71.31Z" fill="#fefbf6" data-fill-palette-color="quaternary"></path><path class="a" d="M29.74 76.61H13.13a0.85 0.85 0 1 1 0-1.7H29.74a0.85 0.85 0 1 1 0 1.7Z" fill="#fefbf6" data-fill-palette-color="quaternary"></path><path class="a" d="M35.38 79.21H26.46a0.85 0.85 0 1 1 0-1.7h8.93a0.85 0.85 0 1 1 0 1.7Z" fill="#fefbf6" data-fill-palette-color="quaternary"></path><path class="a" d="M19.82 79.21H17a0.85 0.85 0 0 1 0-1.7h2.85a0.85 0.85 0 1 1 0 1.7Z" fill="#fefbf6" data-fill-palette-color="quaternary"></path><path class="a" d="M66.47 35.17h-0.13l-8.25-1.23c-1.36-0.34-2.74-0.61-4.57-0.89-3.62-0.56-8.15-2.65-10.31-4.77-5.61-5.5-11.55-5.5-17.16 0a13.88 13.88 0 0 1-9.77 4H8.1a0.85 0.85 0 1 1 0-1.7h8.18A12.19 12.19 0 0 0 24.86 27c6.3-6.18 13.24-6.18 19.54 0 1.91 1.87 6.11 3.8 9.37 4.3 1.88 0.29 3.31 0.57 4.64 0.91l8.17 1.22a0.85 0.85 0 0 1-0.12 1.69Z" fill="#fefbf6" data-fill-palette-color="quaternary"></path><path class="a" d="M79 30.81A4.79 4.79 0 1 1 83.79 26 4.8 4.8 0 0 1 79 30.81Zm0-7.88A3.09 3.09 0 1 0 82.09 26 3.1 3.1 0 0 0 79 22.93Z" fill="#fefbf6" data-fill-palette-color="quaternary"></path><path class="a" d="M71.55 26.87H70a0.85 0.85 0 1 1 0-1.7h1.51a0.85 0.85 0 1 1 0 1.7Z" fill="#fefbf6" data-fill-palette-color="quaternary"></path><path class="a" d="M88 26.87H86.45a0.85 0.85 0 1 1 0-1.7H88a0.85 0.85 0 0 1 0 1.7Z" fill="#fefbf6" data-fill-palette-color="quaternary"></path><path class="a" d="M72.66 33.21a0.85 0.85 0 0 1-0.6-1.45l1.07-1.07a0.85 0.85 0 0 1 1.2 1.2L73.26 33A0.85 0.85 0 0 1 72.66 33.21Z" fill="#fefbf6" data-fill-palette-color="quaternary"></path><path class="a" d="M84.27 21.6a0.85 0.85 0 0 1-0.6-1.45l1.07-1.07a0.85 0.85 0 0 1 1.2 1.2l-1.07 1.07A0.85 0.85 0 0 1 84.27 21.6Z" fill="#fefbf6" data-fill-palette-color="quaternary"></path><path class="a" d="M85.34 33.21a0.85 0.85 0 0 1-0.6-0.25l-1.07-1.07a0.85 0.85 0 0 1 1.2-1.2l1.07 1.07a0.85 0.85 0 0 1-0.6 1.45Z" fill="#fefbf6" data-fill-palette-color="quaternary"></path><path class="a" d="M73.73 21.6a0.85 0.85 0 0 1-0.6-0.25l-1.07-1.07a0.85 0.85 0 0 1 1.2-1.2l1.07 1.07a0.85 0.85 0 0 1-0.6 1.45Z" fill="#fefbf6" data-fill-palette-color="quaternary"></path><path class="a" d="M79 35.83a0.85 0.85 0 0 1-0.85-0.85V33.47a0.85 0.85 0 0 1 1.7 0V35A0.85 0.85 0 0 1 79 35.83Z" fill="#fefbf6" data-fill-palette-color="quaternary"></path><path class="a" d="M79 19.42a0.85 0.85 0 0 1-0.85-0.85V17.05a0.85 0.85 0 0 1 1.7 0v1.51A0.85 0.85 0 0 1 79 19.42Z" fill="#fefbf6" data-fill-palette-color="quaternary"></path></svg></g></svg></g><g></g></svg></g></svg></g></svg></g></svg></g><defs></defs></svg><rect width="342.85155851775386" height="342.85155851775386" fill="none" stroke="none" visibility="hidden"></rect></g></svg></g></svg>